<svg width="16" height="16" viewBox="0 0 16 16" fill="none" xmlns="http://www.w3.org/2000/svg">
<g id="icon_right">
<mask id="mask0_480_4260" style="mask-type:luminance" maskUnits="userSpaceOnUse" x="0" y="0" width="16" height="16">
<rect id="Mask" y="16" width="16" height="16" transform="rotate(-90 0 16)" fill="white"/>
</mask>
<g mask="url(#mask0_480_4260)">
<path id="Vector" fill-rule="evenodd" clip-rule="evenodd" d="M5.1189 13.1411C4.95097 12.9724 4.85669 12.7441 4.85669 12.5061C4.85669 12.2681 4.95097 12.0398 5.1189 11.8711L8.9889 8.0011L5.1189 4.1411C4.95097 3.97243 4.85669 3.74411 4.85669 3.5061C4.85669 3.26809 4.95097 3.03977 5.1189 2.8711C5.28757 2.70317 5.51589 2.60889 5.7539 2.60889C5.99191 2.60889 6.22023 2.70317 6.3889 2.8711L10.8889 7.3711C11.0568 7.53977 11.1511 7.76809 11.1511 8.0061C11.1511 8.24411 11.0568 8.47243 10.8889 8.6411L6.3889 13.1411C6.2189 13.3111 5.9889 13.4011 5.7589 13.4011C5.5289 13.4011 5.2989 13.3111 5.1189 13.1411Z" fill="#9E9E9E"/>
</g>
</g>
</svg>
