<svg width="16" height="17" viewBox="0 0 16 17" fill="none" xmlns="http://www.w3.org/2000/svg">
<g id="icon_clock">
<mask id="mask0_4220_825" style="mask-type:luminance" maskUnits="userSpaceOnUse" x="0" y="0" width="16" height="17">
<rect id="Mask" y="0.5" width="16" height="16" fill="white"/>
</mask>
<g mask="url(#mask0_4220_825)">
<path id="Exclude" fill-rule="evenodd" clip-rule="evenodd" d="M7.99985 5.33374C8.27599 5.33374 8.49985 5.5576 8.49985 5.83374V8.79758C8.49985 8.85504 8.52945 8.90845 8.57818 8.93891L8.31318 9.36291L8.57818 8.93891L10.9315 10.4097C11.1657 10.5561 11.2369 10.8646 11.0905 11.0987C10.9442 11.3329 10.6357 11.4041 10.4015 11.2577L8.04818 9.78691C7.70707 9.57371 7.49985 9.19983 7.49985 8.79758V5.83374C7.49985 5.5576 7.7237 5.33374 7.99985 5.33374ZM0.666595 8.50008C0.666595 12.5507 3.94993 15.8334 7.99993 15.8334C12.0499 15.8334 15.3333 12.5507 15.3333 8.50008C15.3333 4.45008 12.0499 1.16675 7.99993 1.16675C3.94993 1.16675 0.666595 4.45008 0.666595 8.50008Z" fill="#9E9E9E"/>
</g>
</g>
</svg>
