<svg width="26" height="26" viewBox="0 0 26 26" fill="none" xmlns="http://www.w3.org/2000/svg">
<g id="icon_plus">
<mask id="mask0_4080_7662" style="mask-type:luminance" maskUnits="userSpaceOnUse" x="0" y="0" width="26" height="26">
<rect id="Mask" x="0.883545" y="0.883545" width="24.233" height="24.233" fill="white"/>
</mask>
<g mask="url(#mask0_4080_7662)">
<path id="Vector" fill-rule="evenodd" clip-rule="evenodd" d="M14.3308 11.7884V4.72044C14.3308 4.39909 14.2032 4.0909 13.976 3.86367C13.7487 3.63644 13.4405 3.50879 13.1192 3.50879C12.7978 3.50879 12.4897 3.63644 12.2624 3.86367C12.0352 4.0909 11.9075 4.39909 11.9075 4.72044V11.7884H4.83958C4.51823 11.7884 4.21004 11.9161 3.98281 12.1433C3.75559 12.3705 3.62793 12.6787 3.62793 13.0001C3.62793 13.3214 3.75559 13.6296 3.98281 13.8568C4.21004 14.084 4.51823 14.2117 4.83958 14.2117H11.9075V21.2797C11.9075 21.601 12.0352 21.9092 12.2624 22.1364C12.4897 22.3637 12.7978 22.4913 13.1192 22.4913C13.4405 22.4913 13.7487 22.3637 13.976 22.1364C14.2032 21.9092 14.3308 21.601 14.3308 21.2797V14.2117H21.3988C21.7202 14.2117 22.0283 14.084 22.2556 13.8568C22.4828 13.6296 22.6105 13.3214 22.6105 13.0001C22.6105 12.6787 22.4828 12.3705 22.2556 12.1433C22.0283 11.9161 21.7202 11.7884 21.3988 11.7884H14.3308Z" fill="#9E9E9E"/>
</g>
</g>
</svg>
