<svg width="18" height="19" viewBox="0 0 18 19" fill="none" xmlns="http://www.w3.org/2000/svg">
<g id="icon_close">
<mask id="mask0_4972_4350" style="mask-type:luminance" maskUnits="userSpaceOnUse" x="0" y="0" width="18" height="19">
<rect id="Mask" y="0.5" width="18" height="18" fill="white"/>
</mask>
<g mask="url(#mask0_4972_4350)">
<path id="Vector" fill-rule="evenodd" clip-rule="evenodd" d="M14.5994 5.26172C14.6831 5.17815 14.7494 5.07892 14.7947 4.96972C14.84 4.86051 14.8633 4.74345 14.8633 4.62523C14.8633 4.50701 14.8401 4.38994 14.7949 4.28071C14.7497 4.17147 14.6834 4.07221 14.5998 3.98859C14.5163 3.90497 14.417 3.83863 14.3078 3.79336C14.1986 3.74809 14.0816 3.72477 13.9633 3.72473C13.8451 3.7247 13.728 3.74795 13.6188 3.79316C13.5096 3.83836 13.4103 3.90465 13.3267 3.98822L9.08845 8.22722L4.84945 3.98822C4.67872 3.82875 4.45271 3.74185 4.21912 3.74587C3.98553 3.74989 3.76264 3.8445 3.59749 4.00975C3.43235 4.17499 3.33786 4.39794 3.33398 4.63153C3.3301 4.86512 3.41713 5.09108 3.5767 5.26172L7.8157 9.49997L3.5767 13.7382C3.45142 13.8644 3.36623 14.0247 3.33186 14.1992C3.29749 14.3736 3.31546 14.5543 3.38351 14.7186C3.45157 14.8828 3.56667 15.0233 3.71434 15.1223C3.86201 15.2213 4.03566 15.2744 4.21345 15.275C4.4437 15.275 4.67395 15.1872 4.84945 15.0117L9.08845 10.7727L13.3267 15.0117C13.4102 15.0955 13.5093 15.1619 13.6186 15.2072C13.7278 15.2526 13.8448 15.2759 13.9631 15.2759C14.0813 15.2759 14.1984 15.2526 14.3076 15.2072C14.4168 15.1619 14.516 15.0955 14.5994 15.0117C14.6831 14.9281 14.7495 14.8289 14.7948 14.7196C14.8401 14.6104 14.8634 14.4932 14.8634 14.375C14.8634 14.2567 14.8401 14.1396 14.7948 14.0303C14.7495 13.9211 14.6831 13.8218 14.5994 13.7382L10.3612 9.49997L14.5994 5.26172Z" fill="white"/>
</g>
</g>
</svg>
