<svg width="24" height="25" viewBox="0 0 24 25" fill="none" xmlns="http://www.w3.org/2000/svg">
<g id="icon_warning">
<mask id="mask0_4448_10951" style="mask-type:luminance" maskUnits="userSpaceOnUse" x="0" y="0" width="24" height="25">
<rect id="Mask" y="0.5" width="24" height="24" fill="white"/>
</mask>
<g mask="url(#mask0_4448_10951)">
<path id="Exclude" fill-rule="evenodd" clip-rule="evenodd" d="M11.1515 17.2665C10.9264 17.0415 10.8 16.7363 10.8 16.418C10.8 16.0997 10.9264 15.7945 11.1515 15.5695C11.3765 15.3444 11.6817 15.218 12 15.218C12.3183 15.218 12.6235 15.3444 12.8485 15.5695C13.0736 15.7945 13.2 16.0997 13.2 16.418C13.2 16.7363 13.0736 17.0415 12.8485 17.2665C12.6235 17.4916 12.3183 17.618 12 17.618C11.6817 17.618 11.3765 17.4916 11.1515 17.2665ZM11.2929 7.07589C11.4804 6.88836 11.7348 6.783 12 6.783C12.2652 6.783 12.5196 6.88836 12.7071 7.07589C12.8946 7.26343 13 7.51778 13 7.783V12.783C13 13.0482 12.8946 13.3026 12.7071 13.4901C12.5196 13.6776 12.2652 13.783 12 13.783C11.7348 13.783 11.4804 13.6776 11.2929 13.4901C11.1054 13.3026 11 13.0482 11 12.783V7.783C11 7.51778 11.1054 7.26343 11.2929 7.07589ZM1 12.5C1 18.576 5.925 23.5 12 23.5C18.075 23.5 23 18.576 23 12.5C23 6.425 18.075 1.5 12 1.5C5.925 1.5 1 6.425 1 12.5Z" fill="#9E9E9E"/>
</g>
</g>
</svg>
