<svg width="16" height="16" viewBox="0 0 16 16" fill="none" xmlns="http://www.w3.org/2000/svg">
<g id="icon_close">
<mask id="mask0_3394_8316" style="mask-type:luminance" maskUnits="userSpaceOnUse" x="0" y="0" width="16" height="16">
<rect id="Mask" width="16" height="16" fill="white"/>
</mask>
<g mask="url(#mask0_3394_8316)">
<path id="Vector" fill-rule="evenodd" clip-rule="evenodd" d="M12.9775 4.23242C13.0519 4.15814 13.1108 4.06994 13.1511 3.97286C13.1913 3.87579 13.212 3.77174 13.2121 3.66666C13.2121 3.56157 13.1914 3.45751 13.1513 3.36041C13.1111 3.26331 13.0521 3.17508 12.9779 3.10075C12.9036 3.02643 12.8154 2.96746 12.7183 2.92721C12.6212 2.88697 12.5172 2.86624 12.4121 2.86621C12.307 2.86618 12.203 2.88685 12.1059 2.92703C12.0088 2.96722 11.9205 3.02614 11.8462 3.10042L8.07887 6.86842L4.31087 3.10042C4.1591 2.95867 3.9582 2.88143 3.75057 2.885C3.54294 2.88857 3.34481 2.97268 3.19802 3.11956C3.05122 3.26644 2.96723 3.46462 2.96378 3.67225C2.96034 3.87989 3.03769 4.08074 3.17953 4.23242L6.94753 7.99975L3.17953 11.7671C3.06817 11.8792 2.99245 12.0218 2.9619 12.1768C2.93134 12.3319 2.94732 12.4925 3.00781 12.6385C3.0683 12.7845 3.17062 12.9093 3.30188 12.9974C3.43314 13.0854 3.5875 13.1326 3.74553 13.1331C3.9502 13.1331 4.15487 13.0551 4.31087 12.8991L8.07887 9.13109L11.8462 12.8991C11.9204 12.9735 12.0086 13.0326 12.1056 13.0729C12.2027 13.1132 12.3068 13.1339 12.4119 13.1339C12.517 13.1339 12.621 13.1132 12.7181 13.0729C12.8152 13.0326 12.9033 12.9735 12.9775 12.8991C13.0519 12.8248 13.1109 12.7366 13.1512 12.6394C13.1914 12.5423 13.2122 12.4382 13.2122 12.3331C13.2122 12.228 13.1914 12.1239 13.1512 12.0267C13.1109 11.9296 13.0519 11.8414 12.9775 11.7671L9.2102 7.99975L12.9775 4.23242Z" fill="#9E9E9E"/>
</g>
</g>
</svg>
