<svg width="12" height="12" viewBox="0 0 12 12" fill="none" xmlns="http://www.w3.org/2000/svg">
<mask id="mask0_1967_342" style="mask-type:luminance" maskUnits="userSpaceOnUse" x="0" y="0" width="12" height="12">
<rect width="12" height="12" fill="white"/>
</mask>
<g mask="url(#mask0_1967_342)">
<path fill-rule="evenodd" clip-rule="evenodd" d="M1.6365 7.25801L1.0185 9.56301L0.612003 11.0815C0.600713 11.1239 0.600769 11.1686 0.612167 11.211C0.623565 11.2534 0.645904 11.292 0.676946 11.3231C0.707989 11.3541 0.746644 11.3764 0.789039 11.3878C0.831434 11.3992 0.87608 11.3993 0.918503 11.388L2.436 10.981L4.7415 10.363H4.742L9.273 5.83201L6.168 2.72701H6.1675L1.6365 7.25801ZM11.1465 3.25201L8.7485 0.85351C8.70211 0.807037 8.64701 0.770168 8.58635 0.745013C8.52569 0.719857 8.46067 0.706909 8.395 0.706909C8.32934 0.706909 8.26431 0.719857 8.20366 0.745013C8.143 0.770168 8.0879 0.807037 8.0415 0.85351L6.804 2.09051L9.9095 5.19601L11.1465 3.95851C11.193 3.91212 11.2298 3.85701 11.255 3.79636C11.2802 3.7357 11.2931 3.67068 11.2931 3.60501C11.2931 3.53934 11.2802 3.47432 11.255 3.41366C11.2298 3.35301 11.193 3.2979 11.1465 3.25151" fill="#9E9E9E"/>
</g>
</svg>
